<?xml version="1.0" encoding="UTF-8"?>
<svg version="1.1" xmlns="http://www.w3.org/2000/svg" width="1026" height="222">
<path d="M0 0 C2.16588797 1.87710291 4.19991674 3.90304174 6.2265625 5.9296875 C6.5565625 -1.3303125 6.8865625 -8.5903125 7.2265625 -16.0703125 C24.0565625 -16.0703125 40.8865625 -16.0703125 58.2265625 -16.0703125 C58.2265625 54.2196875 58.2265625 124.5096875 58.2265625 196.9296875 C41.3965625 196.9296875 24.5665625 196.9296875 7.2265625 196.9296875 C6.8965625 190.3296875 6.5665625 183.7296875 6.2265625 176.9296875 C4.7415625 178.3940625 3.2565625 179.8584375 1.7265625 181.3671875 C-17.94500658 199.65216115 -42.47081805 202.78989922 -68.33984375 202.10449219 C-95.01492936 200.74646024 -116.68366078 185.9042629 -134.5234375 167.0546875 C-157.30704591 140.93990168 -161.48726658 108.21685258 -159.7734375 74.9296875 C-157.16863747 46.25994544 -141.79914491 20.96230382 -120.7734375 1.9296875 C-86.32319653 -26.44109918 -34.77535844 -28.20542101 0 0 Z M-94.7734375 52.9296875 C-103.75811277 65.51225286 -107.11032609 78.58278932 -105.7734375 93.9296875 C-103.10346408 107.79829232 -96.21412576 118.2751875 -86.21875 127.97265625 C-85.31720184 128.86712967 -84.41565369 129.76160309 -83.48678589 130.68318176 C-81.11845348 133.02846992 -78.73992905 135.36229052 -76.35540771 137.69104004 C-73.91258044 140.08218839 -71.48431714 142.48803395 -69.0546875 144.89257812 C-64.30738816 149.58507574 -59.54607094 154.26296634 -54.7734375 158.9296875 C-51.94040574 157.56073187 -49.78370569 156.21982309 -47.48828125 154.05859375 C-46.88056885 153.48955322 -46.27285645 152.9205127 -45.64672852 152.33422852 C-45.00791748 151.72635498 -44.36910645 151.11848145 -43.7109375 150.4921875 C-43.04698975 149.86691162 -42.38304199 149.24163574 -41.69897461 148.59741211 C-36.76430526 143.92899976 -31.95938156 139.14699706 -27.19140625 134.30859375 C-25.0803519 132.23164367 -22.92411446 130.32086894 -20.6484375 128.4296875 C-10.43948261 119.62525002 -1.91267264 107.44764365 -0.55200195 93.69091797 C0.26804927 76.51705203 -2.87400111 63.7873183 -13.95703125 50.265625 C-24.11532028 39.22328126 -38.1720878 33.39605718 -53.0859375 32.4921875 C-69.44475668 33.21390011 -84.34324669 40.28074835 -94.7734375 52.9296875 Z " fill="#858585" transform="translate(159.7734375,20.0703125)"/>
<path d="M0 0 C0.7198407 0.00304138 1.4396814 0.00608276 2.18133545 0.00921631 C13.39537026 0.07912343 24.0090148 0.79259909 34.6875 4.4375 C35.67073242 4.76693604 35.67073242 4.76693604 36.67382812 5.10302734 C50.32669129 9.8174691 61.90574686 16.87411834 72.6875 26.4375 C73.75097656 27.37529297 73.75097656 27.37529297 74.8359375 28.33203125 C94.6136425 46.89805867 104.08177716 74.77690977 104.94140625 101.34765625 C104.97176216 103.35663644 104.9914684 105.3658086 105 107.375 C105.00547852 108.29716309 105.01095703 109.21932617 105.01660156 110.16943359 C104.9650739 115.14185334 104.51945821 119.88106301 103.66870117 124.78344727 C103.48579025 125.84725113 103.30287933 126.91105499 103.11442566 128.00709534 C102.90309746 129.21014565 102.90309746 129.21014565 102.6875 130.4375 C88.91675326 130.61153964 75.14592 130.77775141 61.375 130.9375 C60.3515234 130.94937725 59.3280468 130.9612545 58.27355576 130.97349167 C29.68194048 131.30322593 1.09363212 131.53409585 -27.5 131.5 C-28.2232761 131.49914398 -28.9465522 131.49828796 -29.69174576 131.49740601 C-38.2320235 131.48650452 -46.77226636 131.46725738 -55.3125 131.4375 C-49.4069958 147.68563342 -42.02663392 160.46137425 -25.875 168.25 C-7.37186317 175.91447927 12.95146036 176.53761906 31.8515625 169.62109375 C41.26205936 165.69357233 48.39598392 160.55503197 55.6875 153.4375 C58.59293872 154.75126917 60.65411059 156.15806492 62.89550781 158.41845703 C63.79598846 159.31916428 63.79598846 159.31916428 64.71466064 160.23806763 C65.668013 161.20690384 65.668013 161.20690384 66.640625 162.1953125 C67.30084656 162.85836395 67.96106812 163.52141541 68.64129639 164.20455933 C70.74477824 166.31921832 72.84119142 168.44073212 74.9375 170.5625 C76.36412261 171.99915557 77.79120072 173.43535898 79.21875 174.87109375 C82.71363661 178.38800804 86.20220062 181.91108547 89.6875 185.4375 C82.62470392 200.30428589 63.67227226 210.13450297 48.88525391 215.67919922 C23.42926985 224.46239034 -7.32296871 226.31403004 -33.3125 218.4375 C-34.35712402 218.12401611 -34.35712402 218.12401611 -35.42285156 217.80419922 C-50.19774693 213.18488182 -63.64339646 205.58265345 -75.3125 195.4375 C-75.9209375 194.96054688 -76.529375 194.48359375 -77.15625 193.9921875 C-97.36093632 177.92027793 -109.12289696 150.54363994 -111.99609375 125.5390625 C-114.72137284 93.87613331 -107.55605754 63.26178475 -87.0234375 38.5859375 C-64.99931312 12.80122085 -33.67157105 -0.30361134 0 0 Z M-43.3125 64.4375 C-48.9045278 71.1362833 -55.3125 80.42971817 -55.3125 89.4375 C-20.3325 89.4375 14.6475 89.4375 50.6875 89.4375 C47.70092363 74.50461817 41.91270194 63.21861152 29.4375 54.0625 C6.75348951 40.43660974 -25.25805274 45.5179438 -43.3125 64.4375 Z " fill="#858585" transform="translate(356.3125,-0.4375)"/>
<path d="M0 0 C2.16535367 0.01610836 4.32884214 0.00002809 6.49414062 -0.01904297 C37.20813692 -0.06601458 62.97139865 12.62048722 85.16601562 33.39111328 C84.58008935 36.83821067 83.43278342 38.50946237 80.99487305 40.98217773 C79.99329414 42.00762444 79.99329414 42.00762444 78.97148132 43.05378723 C77.88248283 44.14308784 77.88248283 44.14308784 76.77148438 45.25439453 C76.02772049 46.00577194 75.2839566 46.75714935 74.51765442 47.53129578 C72.94363179 49.11612049 71.36561607 50.69698783 69.78393555 52.27416992 C67.35923905 54.69789215 64.95664964 57.14215004 62.5546875 59.58837891 C61.02408863 61.12418297 59.49222941 62.65873222 57.95898438 64.19189453 C57.23905807 64.92821609 56.51913177 65.66453766 55.77738953 66.423172 C55.10021378 67.09104233 54.42303802 67.75891266 53.7253418 68.44702148 C53.1332341 69.04118362 52.5411264 69.63534576 51.93107605 70.24751282 C50.16601562 71.39111328 50.16601562 71.39111328 48.06245422 71.17741394 C45.55494331 70.13775071 44.13808864 68.62784712 42.22851562 66.70361328 C32.53574399 57.79458061 20.0244925 54.32385254 7.16601562 53.39111328 C6.49183594 53.33697266 5.81765625 53.28283203 5.12304688 53.22705078 C-9.73542668 52.61375544 -24.33816895 57.71975184 -35.77148438 67.14111328 C-46.13259705 77.11705449 -52.54307445 91.59959547 -53.13476562 105.96923828 C-53.15419944 107.52641358 -53.15774436 109.08385742 -53.14648438 110.64111328 C-53.14084473 111.46812744 -53.13520508 112.2951416 -53.12939453 113.1472168 C-52.82457592 128.68240314 -47.94613098 141.91057634 -37.11914062 153.20751953 C-25.98918332 163.84281206 -12.85878597 169.08482413 2.60351562 169.76611328 C18.08935352 169.09408635 31.95914471 164.63215038 43.89135742 154.69360352 C47.8822048 151.39111328 47.8822048 151.39111328 51.16601562 151.39111328 C52.82427979 152.65496826 52.82427979 152.65496826 54.64355469 154.44873047 C55.32726135 155.11652527 56.01096802 155.78432007 56.71539307 156.47235107 C57.81243561 157.56909149 57.81243561 157.56909149 58.93164062 158.68798828 C59.68443298 159.43316711 60.43722534 160.17834595 61.21282959 160.94610596 C62.80363843 162.52609719 64.39047122 164.11010016 65.97363281 165.69775391 C68.40622665 168.13132039 70.85932865 170.54280513 73.31445312 172.95361328 C74.854815 174.48876893 76.39392101 176.02518596 77.93164062 177.56298828 C78.67109924 178.28605164 79.41055786 179.00911499 80.17242432 179.75408936 C80.84352234 180.4344928 81.51462036 181.11489624 82.20605469 181.81591797 C82.80323303 182.41104187 83.40041138 183.00616577 84.01568604 183.61932373 C85.16601562 185.39111328 85.16601562 185.39111328 84.93572998 187.50274658 C79.86298866 199.94787732 59.91804051 209.3558489 48.21582031 214.5390625 C33.24206245 220.76326628 18.24335627 222.81171516 2.10351562 222.76611328 C1.37779358 222.76556946 0.65207153 222.76502563 -0.09564209 222.76446533 C-28.01532192 222.66844222 -51.92878232 214.06357531 -73.83398438 196.39111328 C-75.00380859 195.47072266 -75.00380859 195.47072266 -76.19726562 194.53173828 C-96.18540836 177.91637274 -108.57962062 151.84020466 -111.83398438 126.39111328 C-113.51738794 91.97061155 -107.37391743 61.56949768 -83.83398438 35.39111328 C-83.14949219 34.62412109 -82.465 33.85712891 -81.75976562 33.06689453 C-60.8472925 10.91745442 -30.05490025 -0.26471118 0 0 Z " fill="#858585" transform="translate(595.833984375,-0.39111328125)"/>
<path d="M0 0 C2.07309679 0.01611595 4.14424558 0.0000116 6.21728516 -0.01904297 C18.76509137 -0.03956284 31.24292706 1.65359323 43.07275391 6.01611328 C44.11447754 6.3957019 44.11447754 6.3957019 45.17724609 6.78295898 C58.75755998 11.95458552 69.91011978 19.62311798 80.57275391 29.39111328 C79.98985988 32.8679915 78.82613193 34.50585383 76.33813477 36.96630859 C75.65750473 37.64671204 74.97687469 38.32711548 74.27561951 39.02813721 C73.5370723 39.75120056 72.79852509 40.47426392 72.03759766 41.21923828 C71.28434708 41.96824402 70.5310965 42.71724976 69.75502014 43.48895264 C67.34704346 45.88013372 64.92884646 48.26067493 62.51025391 50.64111328 C60.87610653 52.26021505 59.24263436 53.8799986 57.60986328 55.50048828 C53.60529544 59.4719751 49.59228584 63.43477538 45.57275391 67.39111328 C42.2075385 66.09573821 39.61186552 64.77975545 36.76025391 62.57861328 C32.5491565 59.69584862 28.34150979 58.08051464 23.51025391 56.57861328 C22.84985107 56.37196045 22.18944824 56.16530762 21.5090332 55.95239258 C5.50651001 51.23784116 -11.90337967 52.5801886 -26.64208984 60.59423828 C-40.24050055 69.36740648 -48.52066434 81.62511524 -52.23974609 97.26611328 C-55.53632072 114.57783946 -52.83940183 131.38157706 -43.42724609 146.39111328 C-34.14567284 159.2858704 -21.30350459 166.05827679 -5.92724609 169.07861328 C11.68114409 170.65079098 28.39545638 166.95213831 42.57666016 156.09033203 C44.66016829 154.25462768 46.65310988 152.39607482 48.57275391 150.39111328 C53.55868266 154.56889093 58.23979675 158.92238605 62.81884766 163.53955078 C63.80281273 164.52563828 63.80281273 164.52563828 64.80665588 165.53164673 C66.87690658 167.6074419 68.94363042 169.68670755 71.01025391 171.76611328 C72.42343252 173.18431409 73.83684184 174.60228505 75.25048828 176.02001953 C78.69391456 179.47440105 82.1341849 182.93189698 85.57275391 186.39111328 C84.62204977 187.50926503 83.67005811 188.62632216 82.7175293 189.74291992 C82.18752823 190.36509903 81.65752716 190.98727814 81.11146545 191.62831116 C65.4385108 209.58379982 41.7050746 219.04706027 18.57275391 222.39111328 C14.01629573 222.60352057 9.46059259 222.61918041 4.89990234 222.63134766 C2.73835948 222.64093321 0.57781936 222.67194566 -1.58349609 222.70361328 C-14.38665546 222.80191553 -26.92077337 221.20039051 -38.98974609 216.70361328 C-39.68680664 216.44870117 -40.38386719 216.19378906 -41.10205078 215.93115234 C-68.97986524 205.36812351 -90.76027824 184.71335824 -103.36743164 157.79589844 C-115.59937993 130.18893621 -115.92505735 97.59514719 -105.42724609 69.39111328 C-93.63600686 40.80830051 -71.9037301 19.47382991 -43.47802734 7.57519531 C-29.47055054 2.08412 -14.96114435 -0.137517 0 0 Z " fill="#858585" transform="translate(796.42724609375,-0.39111328125)"/>
<path d="M0 0 C10.82081857 9.26450003 19.49353984 22.33825498 21.12890625 36.77734375 C22.36973758 53.66976471 19.70303407 69.85766929 8.35546875 83.1015625 C3.67918591 88.35283497 -1.21307779 93.26573629 -6.61328125 97.7734375 C-9.83916416 100.63654811 -12.839798 103.7106431 -15.87109375 106.77734375 C-20.22328486 111.17619016 -24.59021985 115.46535821 -29.3359375 119.4453125 C-31.0571311 120.88297115 -31.0571311 120.88297115 -33.05859375 123.21484375 C-34.87109375 124.77734375 -34.87109375 124.77734375 -37.22634888 125.09457397 C-40.60307071 124.68954503 -41.61578595 123.65510494 -43.99951172 121.26416016 C-45.16629959 120.11133041 -45.16629959 120.11133041 -46.35665894 118.93521118 C-47.59743698 117.66984024 -47.59743698 117.66984024 -48.86328125 116.37890625 C-49.72744659 115.51478119 -50.59161194 114.65065613 -51.48196411 113.76034546 C-53.31182901 111.92511408 -55.1355618 110.08375132 -56.95361328 108.23681641 C-59.71461225 105.43429865 -62.49597041 102.65336455 -65.28125 99.875 C-67.05985595 98.08588932 -68.8372387 96.29556163 -70.61328125 94.50390625 C-71.43641815 93.68056793 -72.25955505 92.85722961 -73.1076355 92.00894165 C-86.93293956 77.90310101 -94.27056365 63.32155063 -94.17163086 43.57739258 C-93.8085531 27.84782203 -87.81936374 14.5969461 -76.80078125 3.4765625 C-55.4766131 -16.17010442 -22.94192672 -17.76048477 0 0 Z " fill="#858585" transform="translate(964.87109375,60.22265625)"/>
</svg>
